<?xml version="1.0" standalone="no"?>
<!DOCTYPE svg PUBLIC "-//W3C//DTD SVG 20010904//EN"
 "http://www.w3.org/TR/2001/REC-SVG-20010904/DTD/svg10.dtd">
<svg version="1.0" xmlns="http://www.w3.org/2000/svg"
 width="1920.000000pt" height="1080.000000pt" viewBox="0 0 1920.000000 1080.000000"
 preserveAspectRatio="xMidYMid meet">

<g transform="translate(0.000000,1080.000000) scale(0.100000,-0.100000)"
fill="#000000" stroke="none">
<path d="M2251 10774 c-6 -14 -9 -29 -6 -34 3 -5 1 -11 -5 -15 -15 -9 -42 -73
-37 -87 2 -7 -2 -21 -11 -31 -8 -9 -20 -25 -26 -35 -6 -10 -39 -61 -73 -113
-35 -52 -61 -99 -58 -106 2 -7 -4 -14 -13 -18 -19 -6 -62 -67 -62 -89 0 -7 -9
-16 -20 -19 -11 -3 -20 -13 -20 -24 0 -10 -16 -29 -35 -42 -19 -13 -35 -26
-35 -30 0 -3 -18 -26 -40 -51 -22 -25 -40 -51 -40 -57 0 -7 -5 -13 -10 -13
-10 0 -194 -173 -263 -247 -17 -18 -35 -33 -41 -33 -6 0 -35 -23 -64 -50 -30
-28 -57 -50 -62 -50 -5 0 -28 -13 -52 -29 -78 -53 -243 -131 -275 -131 -11 0
-24 -5 -31 -12 -6 -6 -47 -12 -93 -14 -75 -1 -85 1 -124 27 -43 29 -84 82
-103 134 -23 60 -41 196 -30 227 6 16 8 42 6 58 -3 17 -1 30 3 30 4 0 10 16
13 36 11 57 57 154 100 214 94 129 201 196 331 207 53 4 79 2 90 -7 10 -9 15
-9 15 -1 0 25 -64 51 -126 51 -219 0 -449 -206 -538 -482 -19 -58 -29 -143
-27 -218 1 -30 2 -62 2 -70 1 -39 34 -169 52 -205 31 -62 130 -153 175 -160
20 -4 55 -13 77 -21 23 -8 61 -14 85 -13 85 2 219 30 245 51 5 4 17 8 27 8 10
0 26 4 36 9 9 4 53 26 97 47 44 22 82 42 83 47 2 4 10 7 18 7 8 0 27 12 44 28
16 15 58 45 94 67 36 22 66 43 66 46 0 4 17 18 38 32 20 14 56 44 80 66 46 45
94 62 108 40 5 -8 14 -50 20 -94 14 -99 28 -135 77 -203 75 -104 174 -147 327
-144 60 1 86 6 180 34 55 16 141 57 188 89 24 16 46 29 49 29 10 0 140 109
201 169 109 107 264 305 255 328 -3 7 2 13 10 13 9 0 21 16 28 35 7 19 17 35
21 35 12 0 54 90 78 168 35 115 28 201 -21 263 -35 44 -51 55 -100 66 -114 26
-268 -18 -386 -111 -29 -22 -53 -43 -53 -46 0 -3 -16 -23 -36 -44 -55 -59 -92
-145 -88 -206 5 -65 15 -84 60 -105 46 -21 99 -14 160 21 24 14 44 28 44 30 0
3 -22 2 -49 -2 -56 -7 -116 9 -125 33 -11 28 23 108 72 169 84 104 197 165
327 175 35 3 94 -20 114 -45 34 -41 0 -212 -60 -298 -11 -14 -19 -30 -19 -36
0 -5 -7 -15 -15 -22 -8 -7 -13 -16 -10 -20 3 -5 1 -12 -5 -15 -6 -4 -29 -30
-51 -58 -101 -130 -211 -244 -316 -328 -31 -25 -141 -99 -147 -99 -3 0 -29
-11 -58 -24 -99 -45 -152 -58 -247 -62 -72 -3 -100 0 -118 11 -12 8 -29 15
-38 15 -8 0 -15 4 -15 10 0 5 -15 30 -34 55 -22 28 -37 62 -41 88 -11 69 -12
161 -3 173 4 6 9 24 11 40 2 17 6 34 9 39 3 6 9 28 13 50 10 58 64 197 86 221
11 11 19 28 19 37 0 10 11 23 25 29 14 6 25 19 25 30 0 10 4 18 9 18 8 0 91
113 91 125 0 3 11 21 25 39 14 18 25 42 25 53 0 12 7 23 15 27 8 3 15 12 15
20 0 7 18 45 40 82 22 38 40 75 40 82 0 7 7 24 16 37 9 14 13 32 10 41 -3 9 3
27 14 41 11 14 20 30 20 34 0 5 -53 9 -118 9 -118 0 -119 0 -131 -26z"/>
<path d="M4215 10790 c4 -6 2 -16 -3 -23 -6 -7 -13 -57 -16 -112 -3 -55 -10
-140 -16 -190 -6 -49 -11 -97 -11 -105 -1 -8 -6 -20 -11 -27 -5 -7 -8 -27 -7
-45 2 -18 0 -39 -5 -46 -4 -6 -9 -31 -12 -54 -3 -23 -10 -48 -16 -55 -6 -7 -8
-19 -5 -28 4 -8 1 -17 -4 -21 -6 -3 -8 -17 -5 -30 4 -13 2 -24 -3 -24 -13 0
-31 -64 -31 -108 0 -18 -10 -46 -22 -62 -12 -17 -23 -47 -24 -69 -1 -22 -11
-53 -24 -71 -16 -22 -21 -40 -17 -60 5 -21 0 -35 -18 -55 -14 -14 -25 -36 -25
-48 0 -12 -9 -28 -20 -35 -11 -7 -20 -21 -20 -31 0 -11 -5 -23 -10 -26 -16
-10 -60 -106 -60 -130 0 -12 -13 -35 -30 -51 -16 -16 -30 -35 -30 -42 0 -18
-22 -55 -42 -70 -10 -7 -18 -24 -18 -37 0 -16 -10 -31 -27 -42 -36 -22 -43
-33 -42 -58 2 -38 -1 -45 -20 -45 -20 0 -84 -72 -95 -107 -4 -13 -13 -23 -19
-23 -15 0 -78 -75 -81 -96 -1 -9 -13 -21 -27 -27 -13 -7 -25 -21 -27 -32 -4
-19 -34 -51 -96 -100 -53 -42 -156 -144 -156 -155 0 -6 -8 -14 -17 -18 -42
-18 -83 -48 -92 -69 -6 -12 -26 -29 -45 -37 -19 -8 -53 -32 -76 -54 -22 -23
-64 -54 -93 -71 -29 -16 -67 -44 -86 -60 -18 -17 -39 -31 -46 -31 -7 0 -27
-16 -44 -35 -20 -23 -39 -35 -56 -35 -14 0 -28 -6 -31 -14 -3 -8 -16 -17 -29
-20 -13 -3 -32 -19 -41 -35 -15 -25 -22 -29 -45 -24 -19 4 -33 -1 -48 -16 -12
-12 -27 -21 -34 -21 -8 0 -22 -9 -32 -20 -19 -21 -93 -60 -113 -60 -7 0 -17
-11 -24 -25 -9 -19 -18 -24 -45 -23 -22 1 -41 -6 -56 -20 -13 -12 -33 -22 -44
-22 -12 0 -29 -8 -39 -17 -10 -10 -22 -19 -28 -19 -6 -1 -16 -2 -23 -3 -6 0
-26 -13 -44 -28 -21 -18 -41 -26 -59 -25 -16 2 -35 -4 -45 -14 -10 -10 -26
-19 -36 -19 -10 -1 -27 -9 -37 -18 -10 -9 -28 -17 -39 -17 -11 0 -26 -7 -33
-15 -7 -8 -16 -12 -21 -9 -12 7 -87 -17 -100 -33 -6 -7 -22 -13 -36 -13 -13 0
-41 -9 -63 -20 -22 -11 -45 -20 -53 -20 -8 0 -27 -11 -42 -24 -20 -17 -40 -25
-66 -24 -23 0 -54 -9 -76 -22 -24 -14 -53 -22 -80 -22 -23 1 -45 -3 -48 -8 -3
-5 -12 -7 -20 -3 -9 3 -40 -7 -69 -21 -34 -17 -68 -26 -90 -24 -21 1 -42 -4
-53 -14 -13 -12 -36 -16 -78 -16 -33 1 -76 -2 -95 -5 -19 -4 -62 -9 -95 -13
-33 -4 -67 -13 -76 -20 -9 -8 -19 -11 -22 -8 -13 14 -137 5 -160 -11 -26 -18
-59 -19 -75 -3 -15 15 -142 20 -158 7 -8 -7 -14 -6 -19 1 -3 5 -15 10 -26 10
-18 0 -19 -8 -19 -160 l0 -160 37 1 c21 1 69 -1 107 -4 39 -3 91 -2 117 2 27
4 54 4 60 0 7 -4 25 -1 40 6 14 8 29 12 32 8 9 -8 67 -14 78 -7 5 3 40 7 78 9
38 3 88 9 112 14 24 6 59 11 76 11 19 0 41 8 52 19 14 14 22 16 30 8 7 -7 18
-7 36 1 13 6 32 9 40 6 8 -3 35 6 61 21 34 20 54 25 77 21 39 -7 118 13 172
44 48 27 110 46 183 55 29 4 58 12 65 18 13 13 22 16 79 27 21 4 45 13 54 21
9 8 22 14 28 14 22 0 112 39 132 57 12 10 28 16 37 13 9 -4 24 2 35 13 10 10
36 22 57 25 21 3 55 18 76 32 21 14 45 25 53 25 9 0 20 9 26 20 6 11 15 18 21
15 11 -8 74 12 92 28 20 18 77 47 92 47 8 0 19 9 25 19 11 22 55 46 101 56 17
4 33 13 36 21 3 8 9 12 13 9 5 -3 24 4 42 15 87 52 160 75 298 93 33 5 72 10
150 22 19 3 62 8 95 11 33 3 65 10 72 16 9 7 17 7 28 -2 8 -6 19 -8 26 -4 20
12 338 3 372 -11 9 -4 26 -5 37 -2 11 3 22 1 25 -3 3 -5 20 -6 39 -3 19 3 36
1 40 -6 4 -6 17 -11 30 -11 12 0 26 -4 31 -9 10 -9 114 -43 128 -42 4 1 16 -8
27 -19 11 -11 27 -20 35 -20 9 0 39 -24 68 -53 40 -39 57 -65 67 -102 7 -28
17 -55 21 -61 5 -6 6 -14 2 -17 -3 -4 -8 -23 -10 -43 -2 -19 -13 -60 -24 -91
-23 -61 -132 -228 -155 -237 -8 -3 -14 -12 -14 -21 0 -8 -5 -15 -12 -15 -7 0
-21 -9 -33 -19 -11 -11 -39 -38 -63 -60 -23 -23 -48 -41 -54 -41 -16 0 -137
-60 -143 -71 -4 -5 -18 -9 -33 -9 -15 -1 -45 -8 -67 -17 -46 -18 -221 -26
-248 -11 -10 5 -25 24 -34 43 -15 32 -15 35 13 79 16 25 32 46 35 46 3 0 14 8
25 18 32 29 125 70 191 82 35 7 60 17 57 22 -32 51 -262 32 -333 -28 -16 -13
-33 -24 -38 -24 -23 0 -98 -103 -88 -120 4 -6 2 -10 -3 -10 -16 0 -23 -79 -12
-121 14 -52 51 -90 125 -130 56 -30 68 -33 163 -35 85 -1 107 2 125 16 16 13
25 15 38 7 18 -11 129 19 129 35 0 6 7 8 15 4 17 -6 85 23 85 36 0 4 9 8 20 8
12 0 31 11 44 25 13 14 29 25 36 25 11 0 55 27 90 56 58 48 197 187 224 224
45 62 96 157 96 180 0 10 4 20 10 22 15 5 44 158 32 170 -7 7 -7 20 0 38 6 19
6 35 -1 48 -6 11 -8 22 -4 26 14 14 -70 167 -120 216 -47 47 -75 70 -86 70 -6
0 -11 4 -11 9 0 13 -64 41 -94 41 -15 0 -29 7 -33 16 -3 8 -17 20 -32 26 -56
21 -163 46 -181 41 -11 -3 -26 -1 -33 5 -7 6 -35 12 -63 15 -28 2 -55 7 -61
10 -6 4 -107 5 -224 3 -133 -2 -219 0 -226 6 -7 6 -13 23 -13 39 0 22 7 32 30
44 17 9 30 19 30 24 0 4 21 22 46 41 25 18 50 46 56 61 6 18 17 29 29 29 10 0
26 8 36 18 10 11 26 22 36 25 10 4 25 23 33 42 9 22 25 40 42 46 31 12 82 57
82 74 0 11 21 33 88 92 23 20 42 40 42 43 0 3 25 32 55 63 30 31 55 65 55 75
0 10 11 24 25 30 14 6 25 20 25 29 0 10 18 36 41 58 22 21 42 49 45 62 4 13
10 23 15 23 17 0 78 108 85 149 4 24 16 49 28 59 31 25 76 95 76 118 0 12 9
29 21 40 25 22 59 90 59 117 0 10 9 32 21 48 13 19 19 40 16 54 -2 14 2 30 9
36 8 6 14 20 14 31 0 10 7 21 15 24 8 4 15 18 15 34 0 16 12 52 27 82 15 30
27 71 27 93 1 22 9 57 19 77 11 21 17 43 15 50 -3 7 1 19 9 26 12 12 14 28 17
97 1 11 4 25 7 30 4 6 7 32 7 58 0 26 5 54 12 62 6 8 11 27 9 42 -1 15 1 35 4
43 13 37 14 60 2 77 -9 12 -10 22 -4 30 15 18 21 91 23 273 l1 165 -93 3 c-65
2 -92 -1 -87 -8z"/>
<path d="M13331 10785 c-19 -6 -43 -24 -53 -38 -17 -24 -24 -26 -62 -21 -30 5
-47 2 -56 -7 -8 -9 -27 -13 -50 -11 -29 3 -43 -1 -59 -17 -12 -12 -34 -21 -50
-21 -15 0 -59 -12 -97 -26 -38 -14 -89 -32 -114 -41 -25 -9 -57 -27 -71 -40
-18 -17 -36 -24 -55 -22 -43 4 -111 -9 -184 -36 -36 -12 -91 -30 -122 -40 -31
-9 -59 -23 -62 -31 -4 -10 -13 -13 -30 -8 -15 3 -36 -1 -53 -10 -15 -8 -47
-20 -70 -26 -23 -6 -45 -15 -48 -20 -3 -6 -17 -10 -30 -10 -13 0 -34 -4 -47
-9 -13 -5 -41 -14 -63 -21 -22 -6 -58 -20 -80 -30 -22 -9 -60 -23 -85 -30 -25
-8 -49 -17 -55 -21 -5 -3 -36 -14 -68 -23 -32 -9 -60 -23 -63 -31 -3 -8 -29
-16 -65 -20 -63 -7 -145 -44 -166 -75 -7 -9 -31 -20 -55 -24 -142 -21 -152
-23 -173 -48 -15 -18 -27 -23 -41 -18 -28 11 -58 -4 -84 -40 -21 -30 -24 -31
-75 -25 -50 7 -53 6 -74 -23 -19 -27 -27 -31 -69 -30 -45 1 -122 -28 -137 -52
-3 -5 -16 -10 -28 -10 -24 0 -117 -55 -117 -69 0 -15 -41 -20 -65 -9 -18 8
-34 6 -69 -7 -25 -10 -46 -22 -46 -26 0 -5 -13 -9 -30 -9 -19 0 -34 -7 -42
-20 -7 -11 -21 -20 -30 -20 -10 0 -28 -10 -40 -22 -16 -16 -32 -21 -58 -19
-24 1 -41 -3 -49 -13 -8 -9 -18 -16 -24 -16 -6 0 -18 -7 -27 -15 -9 -8 -33
-16 -54 -19 -22 -3 -58 -14 -80 -25 -23 -11 -63 -30 -91 -41 -27 -12 -57 -28
-65 -35 -8 -7 -26 -16 -40 -20 -14 -4 -66 -27 -117 -51 -50 -24 -99 -44 -108
-44 -10 0 -39 -18 -65 -40 -33 -27 -57 -40 -78 -40 -45 0 -117 -35 -143 -69
-25 -35 -70 -56 -100 -48 -14 4 -46 -7 -88 -29 -36 -19 -116 -47 -177 -62 -62
-15 -119 -34 -128 -41 -9 -7 -25 -11 -36 -8 -21 5 -98 -11 -116 -24 -5 -5 -44
-13 -85 -19 -40 -7 -84 -16 -96 -22 -11 -6 -26 -7 -32 -3 -7 4 -18 2 -26 -5
-7 -6 -19 -10 -27 -9 -25 5 -97 -13 -109 -27 -6 -7 -16 -11 -22 -7 -17 10 -78
4 -101 -10 -11 -8 -46 -14 -76 -14 -31 0 -67 -6 -80 -13 -14 -7 -47 -14 -75
-15 -59 -2 -123 -13 -139 -22 -6 -4 -42 -9 -81 -11 -38 -2 -79 -9 -90 -16 -14
-9 -25 -10 -36 -3 -9 6 -24 7 -35 2 -11 -4 -29 -7 -41 -6 -11 1 -24 -3 -28 -8
-3 -6 -21 -11 -40 -11 -19 0 -45 -5 -59 -11 -18 -9 -29 -9 -38 -1 -16 13 -141
7 -169 -9 -11 -5 -30 -7 -42 -3 -43 13 -112 11 -139 -4 -21 -12 -32 -13 -50
-5 -34 16 -145 14 -159 -3 -10 -13 -15 -12 -35 1 -17 11 -52 16 -116 17 -51 0
-98 5 -104 9 -6 5 -37 11 -70 15 -32 4 -63 10 -69 14 -5 4 -28 13 -50 19 -77
24 -133 63 -136 97 -6 67 1 92 51 168 28 42 50 78 50 80 0 2 38 43 85 92 47
49 85 92 85 97 0 4 6 7 13 7 7 0 33 20 57 45 24 25 49 45 55 45 5 0 22 10 35
23 45 39 109 87 117 87 4 0 21 11 37 25 16 14 35 25 43 25 7 0 13 3 13 8 0 4
13 13 29 20 16 7 41 24 55 37 15 14 33 25 39 25 7 0 28 11 47 24 19 13 63 38
98 56 34 17 62 36 62 41 0 9 39 28 65 33 27 5 225 108 225 118 0 5 6 8 13 5 7
-3 30 4 52 14 21 10 44 19 51 19 6 0 14 7 18 15 3 8 13 15 23 15 10 0 86 27
168 61 83 33 168 67 190 74 141 48 267 94 272 99 4 3 17 6 30 6 13 0 31 4 41
10 20 11 129 43 226 65 38 9 81 21 95 27 14 6 42 12 61 15 19 2 48 11 64 19
16 8 66 16 110 19 45 3 95 9 111 14 35 11 142 22 203 21 24 -1 50 4 57 10 10
8 20 8 31 2 10 -6 27 -6 40 -2 27 11 143 -17 167 -40 22 -21 26 -79 5 -94 -8
-6 -23 -28 -33 -48 -10 -24 -24 -38 -35 -38 -10 0 -27 -11 -38 -25 -11 -14
-24 -25 -29 -25 -12 0 -63 -49 -63 -60 0 -6 -9 -10 -19 -10 -11 0 -32 -15 -46
-34 -15 -20 -38 -36 -55 -40 -18 -3 -30 -12 -30 -21 0 -9 -9 -15 -25 -15 -23
0 -80 -27 -115 -54 -24 -18 -80 -48 -80 -42 0 3 -44 -16 -97 -43 -100 -50
-127 -62 -153 -67 -8 -2 -16 -8 -18 -14 -2 -5 -8 -8 -13 -4 -5 3 -26 -5 -47
-18 -20 -12 -43 -21 -50 -20 -8 2 -19 -1 -25 -6 -7 -6 -34 -13 -61 -16 -27 -4
-54 -10 -60 -14 -6 -3 -28 -8 -48 -9 -29 -2 -41 3 -57 23 -18 23 -19 51 0 64
35 25 66 49 92 72 42 35 188 107 250 121 97 24 29 64 -78 47 -93 -15 -265 -81
-265 -101 0 -5 -5 -9 -11 -9 -11 0 -82 -50 -87 -62 -2 -5 -9 -8 -16 -8 -14 0
-77 -73 -100 -118 -24 -46 -12 -126 23 -163 39 -40 144 -69 231 -64 119 9 200
23 200 37 0 6 7 7 16 4 8 -3 25 -1 36 5 11 6 35 13 52 15 17 3 47 11 66 19 19
7 56 21 82 30 26 10 49 23 52 31 3 8 19 14 35 14 17 0 42 11 59 25 17 14 40
25 53 25 13 0 44 14 69 30 25 16 51 30 57 30 18 0 110 58 116 73 3 7 23 19 46
27 23 7 46 19 52 27 6 7 17 13 25 13 7 0 29 16 50 35 20 19 42 35 48 35 15 1
129 108 151 142 9 15 25 30 35 33 10 3 29 28 41 55 12 28 26 50 31 50 30 0 62
195 33 206 -8 4 -15 15 -15 27 0 21 -55 77 -76 77 -7 0 -23 11 -36 23 -35 36
-97 48 -252 53 -157 4 -303 -10 -326 -31 -10 -9 -20 -11 -30 -5 -16 10 -98 3
-115 -10 -10 -7 -52 -17 -110 -25 -53 -8 -159 -35 -178 -45 -10 -6 -22 -8 -26
-5 -10 5 -202 -49 -235 -67 -12 -6 -34 -12 -50 -14 -26 -2 -49 -10 -98 -35
-10 -5 -27 -9 -39 -9 -11 0 -35 -6 -52 -14 -18 -7 -45 -18 -62 -24 -16 -6 -39
-13 -50 -18 -11 -4 -25 -8 -31 -9 -5 -2 -30 -12 -54 -24 -24 -11 -52 -21 -61
-21 -10 0 -21 -4 -24 -10 -3 -5 -13 -10 -20 -10 -8 0 -39 -11 -69 -25 -30 -14
-58 -25 -63 -25 -4 -1 -26 -9 -48 -20 -22 -11 -46 -19 -52 -20 -7 0 -13 -4
-13 -10 0 -5 -8 -10 -19 -10 -10 0 -24 -6 -31 -14 -6 -8 -18 -12 -26 -9 -7 3
-17 -2 -20 -11 -3 -9 -16 -16 -28 -16 -27 0 -266 -117 -266 -130 0 -6 -7 -10
-15 -10 -8 0 -23 -4 -33 -9 -9 -5 -43 -22 -76 -37 -108 -53 -125 -64 -136 -84
-6 -11 -16 -17 -25 -14 -8 3 -28 -4 -44 -15 -16 -12 -32 -21 -36 -21 -3 0 -52
-30 -107 -67 -116 -78 -121 -81 -166 -110 -19 -11 -40 -30 -48 -42 -8 -11 -21
-21 -27 -21 -7 0 -27 -13 -45 -30 -18 -16 -37 -30 -42 -30 -5 0 -12 -9 -15
-20 -3 -11 -14 -20 -24 -20 -18 0 -241 -210 -241 -226 0 -4 -14 -22 -31 -40
-16 -17 -31 -41 -32 -53 -1 -11 -5 -21 -9 -21 -4 0 -14 -17 -23 -37 -9 -21
-23 -49 -29 -63 -18 -35 -18 -190 0 -197 8 -3 11 -15 8 -31 -3 -21 7 -42 44
-92 27 -36 62 -72 77 -80 16 -8 40 -25 53 -37 16 -14 38 -23 58 -23 19 0 34
-5 34 -11 0 -10 63 -41 77 -37 5 0 20 -4 36 -10 29 -12 113 -24 159 -23 15 1
29 -3 32 -8 3 -4 37 -7 76 -7 39 1 73 -1 76 -5 8 -14 144 -9 167 6 20 13 26
13 52 -1 23 -12 50 -15 118 -11 49 2 93 9 99 15 7 7 19 7 35 1 14 -5 29 -6 34
-3 6 3 38 8 72 10 124 8 153 12 186 22 21 7 40 8 51 2 20 -11 59 -3 82 18 14
11 21 12 32 3 15 -13 66 -7 99 11 11 6 41 11 66 13 25 1 83 5 127 8 68 6 84 4
95 -9 21 -25 -11 -68 -57 -75 -25 -4 -48 -18 -66 -38 -15 -17 -37 -31 -49 -31
-11 0 -44 -19 -72 -43 -29 -24 -66 -49 -83 -56 -17 -7 -36 -23 -42 -37 -7 -14
-20 -24 -32 -24 -33 0 -74 -26 -104 -64 -15 -20 -32 -36 -39 -36 -21 0 -144
-91 -157 -116 -10 -18 -22 -24 -47 -24 -32 0 -73 -28 -73 -50 0 -5 -8 -10 -19
-10 -10 0 -24 -7 -31 -15 -6 -8 -30 -25 -53 -39 -23 -13 -52 -38 -65 -55 -12
-17 -29 -31 -37 -31 -7 0 -24 -13 -37 -29 -13 -16 -40 -36 -61 -45 -26 -11
-42 -25 -50 -46 -9 -23 -18 -30 -37 -30 -26 0 -70 -36 -70 -56 0 -6 -18 -20
-39 -32 -22 -12 -52 -37 -68 -55 -16 -17 -36 -33 -44 -35 -21 -4 -59 -50 -59
-71 0 -20 -19 -31 -50 -31 -10 0 -38 -18 -61 -40 -24 -22 -47 -40 -51 -40 -5
0 -13 -10 -19 -22 -5 -13 -28 -36 -51 -52 -22 -16 -44 -42 -50 -57 -5 -16 -17
-29 -26 -29 -18 0 -112 -90 -112 -107 0 -7 -6 -13 -13 -13 -18 0 -44 -30 -49
-55 -2 -11 -17 -29 -34 -40 -17 -11 -55 -50 -85 -87 -30 -37 -66 -81 -81 -97
-16 -17 -28 -35 -28 -40 0 -5 -13 -23 -30 -39 -20 -20 -30 -40 -30 -60 0 -24
-7 -34 -35 -51 -20 -11 -38 -29 -42 -38 -3 -10 -19 -30 -35 -45 -20 -20 -28
-36 -28 -62 0 -28 -8 -41 -44 -73 -25 -21 -46 -47 -48 -58 -2 -11 -11 -27 -21
-35 -20 -17 -23 -39 -13 -91 5 -23 4 -39 -3 -43 -6 -4 -11 -25 -11 -46 0 -35
-4 -43 -39 -64 -51 -33 -71 -62 -71 -106 0 -20 -5 -41 -11 -47 -6 -6 -11 -29
-11 -51 1 -30 -5 -45 -24 -61 -13 -11 -25 -31 -26 -43 -1 -13 -3 -36 -5 -53
-2 -16 -4 -48 -6 -70 -1 -22 -6 -45 -10 -52 -4 -7 -1 -25 7 -40 23 -46 31
-137 13 -164 -12 -19 -14 -33 -6 -69 6 -25 11 -58 13 -73 2 -15 8 -33 14 -39
7 -7 12 -26 12 -44 0 -17 7 -37 15 -44 8 -7 15 -23 15 -36 0 -12 5 -26 10 -29
6 -3 10 -15 10 -26 0 -10 9 -27 20 -36 11 -10 20 -27 20 -39 0 -11 14 -40 30
-62 17 -23 30 -46 30 -51 0 -6 8 -16 19 -23 10 -7 21 -23 25 -35 4 -12 25 -40
46 -62 22 -23 40 -45 40 -49 0 -16 47 -52 67 -52 14 0 24 -8 29 -22 7 -23 51
-69 139 -146 44 -37 64 -48 80 -39 2 1 12 -8 20 -20 22 -32 102 -76 125 -70
14 4 28 -5 46 -26 34 -41 73 -67 100 -67 12 0 27 -7 34 -15 7 -8 20 -15 30
-15 9 0 29 -9 43 -20 14 -11 35 -20 47 -20 12 0 35 -9 51 -21 16 -11 38 -22
50 -24 11 -2 27 -9 35 -16 8 -6 20 -9 28 -6 8 3 20 -1 27 -9 9 -11 22 -14 41
-10 16 3 28 1 28 -4 0 -6 10 -14 23 -19 12 -5 46 -19 75 -31 30 -12 68 -22 85
-22 18 0 40 -7 49 -15 9 -8 23 -13 30 -10 7 2 22 0 33 -6 11 -6 49 -16 85 -24
36 -7 70 -15 75 -17 6 -1 17 -5 25 -8 46 -17 92 -25 124 -23 20 1 36 -1 36 -5
0 -13 68 -22 87 -12 46 24 72 23 96 -4 27 -29 44 -33 153 -38 39 -2 76 -6 82
-10 12 -7 109 -18 189 -20 29 -1 56 -5 59 -9 11 -11 82 -8 89 3 5 8 12 7 22
-2 11 -9 54 -13 137 -14 67 -1 130 -2 141 -2 11 0 28 -1 38 -1 9 -1 37 -1 62
-1 25 0 54 0 65 0 11 0 28 0 38 -1 16 0 270 9 302 12 8 0 24 0 35 -1 11 -1 36
1 55 4 19 3 81 8 138 10 60 2 109 9 118 16 9 8 31 11 59 8 25 -3 48 -1 51 4 4
5 21 7 39 4 21 -4 36 -2 40 5 5 7 22 9 47 5 22 -4 45 -2 52 3 6 5 45 12 86 15
41 3 91 7 110 9 19 1 42 7 50 12 7 5 31 8 51 6 21 -1 55 5 75 14 21 9 44 13
52 10 8 -3 22 1 31 9 9 8 47 18 86 21 39 4 80 13 92 21 13 8 34 11 51 8 18 -4
41 0 61 10 17 9 37 16 44 15 14 -3 94 19 119 32 10 5 33 9 52 9 19 0 38 4 41
10 3 5 19 10 34 10 16 0 34 7 41 16 8 8 25 14 39 13 38 -3 84 11 99 29 8 11
31 17 67 18 31 1 61 6 68 11 6 6 34 16 62 22 27 7 54 16 60 20 5 5 25 11 43
14 18 4 40 14 48 22 9 8 27 17 42 20 38 8 181 53 220 71 17 8 49 21 70 30 20
9 49 22 63 30 14 7 28 11 31 8 7 -7 58 17 58 28 0 4 9 8 20 8 11 0 27 12 37
26 13 20 22 25 43 20 15 -2 38 1 51 8 13 6 50 22 82 35 31 13 57 27 57 32 0 5
7 9 15 9 8 0 23 4 33 9 9 5 37 18 61 30 24 12 55 27 70 35 14 8 55 28 91 45
36 17 79 40 95 51 17 11 37 22 45 25 8 3 29 13 45 22 17 9 47 24 67 35 21 10
42 27 48 38 6 11 21 20 34 20 13 0 29 7 36 15 7 8 21 15 31 15 10 0 24 9 31
20 7 11 20 20 30 20 9 0 29 11 44 25 15 14 31 25 37 25 23 0 107 64 125 94 17
28 24 33 46 29 22 -5 33 2 59 31 18 20 41 36 50 36 22 0 100 52 143 95 17 17
48 39 68 49 20 10 40 24 42 31 3 7 17 16 30 19 14 4 30 17 36 31 6 14 23 27
39 30 16 4 37 17 48 31 10 13 22 24 26 24 13 0 176 142 201 176 14 18 36 35
49 38 14 4 25 10 25 15 0 9 59 68 115 115 19 16 35 36 35 43 0 8 15 22 33 33
34 20 114 109 119 131 2 7 12 18 23 24 11 6 21 19 23 29 2 11 17 30 33 43 16
14 29 30 29 36 0 7 9 18 20 25 11 7 20 16 20 22 0 5 10 20 23 33 34 37 77 112
77 135 0 11 7 22 15 26 8 3 15 14 15 24 0 10 9 27 20 37 11 10 20 26 20 36 0
10 5 21 11 25 6 3 9 20 6 37 -2 19 2 37 12 49 19 22 21 37 22 143 0 91 -16
171 -37 179 -8 3 -14 14 -14 26 0 11 -20 41 -45 67 -25 25 -45 50 -45 55 0 4
-12 11 -27 14 -16 4 -34 16 -41 26 -7 10 -21 18 -30 18 -9 0 -28 9 -42 20 -15
12 -41 20 -66 20 -25 0 -47 6 -54 16 -7 8 -23 14 -35 12 -12 -1 -28 2 -36 8
-22 17 -70 23 -96 11 -18 -8 -27 -7 -40 5 -24 21 -151 22 -174 2 -14 -13 -20
-12 -47 3 -26 15 -35 16 -51 6 -11 -7 -22 -9 -25 -4 -9 13 -171 8 -188 -6 -8
-7 -18 -10 -22 -6 -11 12 -137 4 -186 -11 -25 -8 -73 -14 -107 -15 -35 0 -73
-6 -85 -13 -13 -6 -41 -13 -63 -14 -51 -3 -164 -24 -190 -35 -11 -5 -39 -11
-61 -13 -70 -8 -224 -53 -224 -65 0 -4 -13 -6 -29 -3 -16 2 -32 -1 -35 -7 -4
-6 -18 -11 -31 -11 -13 0 -34 -4 -47 -9 -13 -5 -52 -17 -88 -27 -36 -9 -72
-23 -81 -31 -8 -7 -30 -13 -47 -13 -17 0 -37 -7 -46 -15 -8 -8 -28 -15 -45
-15 -16 0 -33 -4 -36 -10 -3 -5 -15 -10 -26 -10 -11 0 -36 -7 -57 -16 -20 -10
-41 -18 -47 -19 -33 -9 -65 -26 -65 -35 0 -6 -4 -9 -10 -5 -12 7 -129 -40
-144 -59 -6 -7 -26 -16 -44 -20 -19 -3 -46 -15 -61 -26 -16 -11 -30 -17 -33
-14 -3 2 -11 -2 -18 -11 -7 -8 -20 -15 -30 -15 -10 0 -41 -16 -69 -35 -28 -19
-57 -35 -64 -35 -8 0 -31 -11 -51 -25 -20 -14 -41 -25 -47 -25 -5 0 -12 -6
-15 -14 -3 -8 -11 -13 -19 -10 -7 3 -19 -1 -27 -9 -8 -8 -24 -17 -35 -21 -12
-4 -36 -20 -54 -37 -17 -16 -35 -29 -39 -29 -5 0 -15 -6 -22 -12 -7 -7 -30
-21 -50 -32 -20 -10 -51 -33 -70 -52 -18 -18 -37 -34 -43 -34 -5 0 -27 -16
-48 -35 -21 -19 -42 -35 -47 -35 -5 0 -28 -25 -50 -55 -22 -30 -48 -55 -56
-55 -16 0 -174 -153 -174 -169 0 -5 -18 -31 -40 -57 -22 -27 -40 -56 -40 -66
0 -9 -7 -23 -15 -32 -8 -8 -15 -23 -15 -34 0 -11 -7 -25 -15 -32 -9 -7 -13
-21 -9 -35 3 -13 1 -26 -5 -29 -13 -9 -15 -130 -2 -154 5 -9 12 -24 15 -32 15
-37 74 -105 96 -108 13 -2 30 -12 39 -22 19 -21 103 -45 126 -36 9 3 26 -1 39
-9 18 -12 50 -14 170 -10 82 3 153 8 160 12 6 4 21 6 33 4 13 -1 28 1 35 6 7
4 22 9 33 9 61 5 111 18 122 31 8 10 28 15 55 15 23 -1 48 4 55 10 7 6 32 12
55 14 23 2 46 8 52 14 5 5 20 10 33 10 13 0 31 4 41 9 9 5 53 22 97 37 44 15
87 33 96 40 8 8 22 14 30 14 8 0 48 20 89 45 41 24 91 52 110 62 19 10 37 21
38 26 2 4 8 7 14 7 5 0 20 8 33 18 12 9 33 24 46 32 38 25 89 78 89 94 0 7 9
16 20 19 12 3 20 14 20 26 0 11 11 32 24 46 41 44 27 158 -24 185 -44 24 -147
4 -179 -33 -12 -15 -9 -19 23 -32 l36 -15 -17 -33 c-10 -18 -42 -53 -72 -77
-29 -25 -68 -57 -85 -72 -17 -16 -35 -28 -41 -28 -6 0 -27 -14 -48 -31 -20
-17 -41 -27 -47 -24 -6 3 -22 -3 -36 -14 -15 -12 -34 -21 -43 -21 -10 0 -21
-4 -27 -9 -5 -5 -40 -21 -79 -36 -38 -15 -95 -39 -125 -53 -30 -14 -65 -25
-77 -23 -13 1 -23 -2 -23 -8 0 -6 -15 -11 -34 -11 -22 0 -45 -9 -65 -26 -25
-21 -34 -23 -52 -14 -12 7 -32 9 -47 5 -15 -4 -40 -9 -57 -11 -16 -2 -43 -6
-60 -9 -70 -11 -321 -22 -337 -14 -9 5 -27 9 -40 9 -14 0 -37 13 -53 30 -23
24 -29 39 -29 71 1 22 7 46 13 52 6 6 11 17 11 24 0 7 8 21 18 32 9 10 25 29
35 42 36 48 93 113 125 142 17 17 32 36 32 44 0 7 6 13 14 13 8 0 18 9 21 20
3 11 14 20 24 20 15 0 44 22 129 99 12 12 27 21 32 21 5 0 13 6 17 13 4 8 29
26 56 41 26 16 47 31 47 35 0 4 29 22 65 40 36 18 75 43 88 55 21 19 47 34 87
50 8 3 38 20 65 36 28 16 57 33 65 36 54 22 79 36 90 49 17 21 66 46 73 38 9
-8 89 26 114 49 13 12 29 18 39 14 9 -3 22 -3 28 2 6 5 40 19 76 32 36 12 77
31 92 42 16 11 32 17 37 14 5 -3 33 5 62 18 30 13 70 26 90 30 21 4 42 13 49
21 7 8 16 12 21 9 15 -9 119 25 125 41 4 9 17 12 39 10 22 -3 52 3 82 17 26
12 60 21 74 20 14 -2 39 3 55 9 16 7 37 11 47 10 10 -1 29 5 43 14 14 9 33 13
45 10 11 -4 25 -2 32 3 7 6 29 13 49 17 21 4 42 13 49 21 9 12 14 11 31 0 15
-11 27 -12 45 -5 13 5 35 9 48 9 13 0 36 5 52 12 25 11 101 19 178 19 17 0 41
4 55 9 54 20 463 34 509 18 15 -5 28 -5 34 1 7 7 16 7 28 0 10 -5 48 -11 84
-13 35 -2 70 -8 78 -14 7 -6 26 -16 42 -22 17 -6 53 -25 82 -42 42 -26 53 -38
62 -72 17 -60 16 -84 -3 -156 -23 -86 -50 -141 -106 -220 -25 -36 -68 -100
-96 -142 -27 -42 -57 -79 -67 -82 -10 -2 -21 -14 -24 -25 -3 -12 -9 -21 -14
-21 -5 0 -28 -21 -51 -46 -70 -76 -180 -182 -256 -247 -17 -15 -32 -34 -32
-42 0 -9 -13 -18 -31 -22 -20 -4 -38 -18 -52 -39 -12 -19 -29 -34 -37 -34 -8
0 -38 -23 -67 -50 -29 -28 -58 -50 -66 -50 -7 0 -30 -16 -51 -35 -21 -19 -40
-35 -43 -35 -13 0 -67 -49 -74 -67 -6 -16 -17 -23 -36 -23 -18 0 -42 -13 -66
-35 -21 -19 -42 -35 -46 -35 -4 0 -16 -9 -26 -20 -10 -11 -24 -20 -31 -20 -7
0 -31 -18 -54 -40 -23 -22 -59 -44 -81 -50 -23 -6 -39 -17 -39 -25 0 -9 -9
-15 -21 -15 -12 0 -34 -11 -51 -25 -16 -14 -36 -25 -44 -25 -8 0 -14 -4 -14
-9 0 -5 -20 -18 -45 -30 -25 -12 -45 -27 -45 -34 0 -8 -19 -20 -42 -27 -24 -7
-74 -32 -113 -55 -38 -23 -85 -48 -102 -55 -18 -7 -33 -16 -33 -21 0 -5 -8 -9
-19 -9 -10 0 -30 -9 -44 -20 -14 -11 -32 -20 -41 -20 -9 0 -19 -6 -22 -14 -3
-8 -29 -22 -57 -31 -29 -9 -63 -24 -77 -33 -14 -9 -32 -17 -40 -19 -8 -1 -20
-9 -26 -17 -6 -9 -14 -13 -17 -10 -3 4 -45 -12 -92 -35 -47 -22 -89 -41 -94
-41 -4 0 -25 -13 -46 -30 -24 -19 -48 -29 -68 -28 -18 0 -58 -13 -91 -31 -32
-17 -64 -31 -71 -31 -7 0 -26 -7 -41 -15 -16 -8 -36 -15 -45 -15 -8 0 -50 -18
-91 -39 -42 -22 -79 -37 -81 -34 -5 5 -61 -10 -102 -27 -11 -4 -53 -18 -93
-30 -40 -13 -75 -27 -78 -31 -3 -5 -10 -7 -15 -3 -5 3 -22 -2 -37 -12 -15 -10
-47 -20 -72 -21 -24 -2 -49 -8 -54 -13 -6 -6 -21 -10 -33 -10 -13 0 -35 -12
-48 -26 -19 -21 -27 -24 -44 -15 -30 16 -47 13 -79 -14 -18 -15 -37 -23 -46
-19 -9 3 -24 3 -33 -1 -10 -5 -42 -9 -71 -10 -29 -2 -58 -7 -65 -13 -6 -5 -26
-10 -44 -10 -17 0 -42 -7 -55 -16 -13 -8 -50 -17 -83 -21 -33 -3 -87 -10 -120
-15 -33 -6 -71 -12 -85 -14 -92 -15 -158 -29 -175 -38 -11 -6 -54 -13 -95 -14
-41 -2 -91 -8 -110 -14 -19 -5 -54 -10 -77 -10 -23 0 -44 -4 -48 -10 -4 -6
-15 -6 -32 1 -17 6 -30 6 -39 -1 -9 -8 -19 -8 -32 -1 -11 6 -22 8 -25 5 -7 -7
-84 -12 -272 -19 -71 -2 -156 -8 -187 -13 -32 -5 -63 -5 -70 0 -18 11 -96 10
-118 -2 -13 -7 -21 -7 -25 0 -4 6 -50 10 -113 9 -59 -1 -115 1 -124 6 -10 4
-25 4 -34 1 -8 -3 -24 -1 -35 4 -13 8 -25 7 -40 -1 -16 -8 -27 -8 -43 0 -11 6
-55 13 -96 15 -41 3 -93 8 -115 12 -22 3 -49 7 -60 6 -11 0 -55 7 -98 15 -70
13 -123 20 -198 26 -14 1 -33 8 -43 16 -9 7 -35 14 -59 15 -23 1 -53 8 -66 15
-13 7 -36 10 -51 7 -19 -3 -33 0 -41 10 -9 11 -23 14 -46 11 -18 -3 -35 -1
-39 4 -9 16 -55 32 -95 34 -19 1 -47 10 -62 19 -14 10 -34 16 -44 14 -10 -2
-26 5 -35 14 -12 12 -33 18 -62 18 -25 0 -48 4 -51 10 -3 5 -23 17 -43 25 -83
36 -108 48 -122 56 -32 19 -107 52 -151 65 -25 7 -56 25 -69 39 -14 15 -35 25
-51 25 -15 0 -29 6 -32 14 -5 13 -122 106 -134 106 -3 0 -13 7 -22 15 -43 42
-97 85 -107 85 -7 0 -14 9 -17 20 -3 11 -16 24 -30 29 -13 5 -27 20 -30 33 -4
14 -18 30 -32 38 -14 7 -25 20 -25 27 0 8 -11 25 -25 39 -14 14 -25 30 -25 36
0 6 -11 26 -25 44 -14 18 -25 41 -25 51 0 17 -11 37 -53 96 -14 20 -16 30 -8
46 11 19 10 45 -9 201 -7 61 -6 78 6 91 17 18 44 118 44 157 -1 42 6 85 17
107 6 11 14 39 18 63 5 31 17 52 41 74 19 17 34 38 34 45 0 8 16 29 35 46 24
21 35 39 35 59 0 15 4 28 10 28 24 0 50 41 50 80 0 35 4 41 33 53 37 16 54 33
59 62 1 11 12 25 22 30 21 11 46 47 74 107 9 21 24 38 32 38 13 0 120 110 120
123 0 3 29 33 65 68 36 34 65 67 65 74 0 6 11 17 25 23 13 6 27 22 30 35 4 14
18 29 31 36 13 6 29 22 36 36 6 14 22 28 34 31 29 7 91 75 100 108 4 17 15 26
37 30 20 4 53 29 94 71 35 36 63 69 63 73 0 5 11 14 25 20 14 7 30 23 37 37 7
17 19 25 35 25 40 0 62 18 74 60 10 31 17 40 35 40 12 0 36 11 52 25 17 14 34
25 40 25 5 0 28 18 51 40 22 22 46 40 52 40 18 0 87 59 94 80 4 12 15 20 28
20 22 0 63 37 152 133 34 36 51 47 75 47 18 0 37 8 47 20 10 11 23 20 29 20 6
0 28 14 49 30 21 17 43 30 49 30 6 0 29 20 53 45 29 31 49 45 68 45 15 0 36
11 49 25 13 14 30 25 37 25 16 0 109 64 121 83 4 6 8 24 8 39 0 41 44 67 101
61 33 -4 48 -1 58 11 7 9 23 16 36 16 12 0 30 9 40 20 10 11 23 20 28 20 6 0
36 23 68 50 35 30 67 50 82 50 13 0 32 9 43 21 25 28 67 49 97 49 14 0 39 15
60 35 20 19 41 35 46 35 6 0 18 11 27 25 11 17 26 25 44 25 37 0 86 18 140 52
25 15 62 35 82 44 21 9 46 30 57 49 18 31 23 33 56 28 28 -4 43 -1 65 15 15
12 39 24 53 27 14 4 33 15 43 26 9 10 22 19 29 19 17 0 192 88 200 100 3 5 15
10 25 10 10 0 25 7 34 15 8 8 23 15 33 15 11 0 34 15 52 34 20 20 39 32 48 29
8 -3 27 4 43 16 16 11 37 21 47 21 10 0 33 9 51 20 18 11 37 20 42 20 19 0
136 58 149 74 7 9 25 16 39 16 33 0 105 42 130 77 16 23 26 26 66 25 34 -2 56
4 86 23 22 14 40 30 40 35 0 5 17 9 38 8 36 -1 94 22 107 42 4 6 31 22 61 35
30 13 57 30 60 38 3 9 15 12 34 9 17 -2 37 2 46 9 9 8 26 12 38 11 13 -2 31 7
46 23 13 14 34 25 46 25 13 0 25 4 28 9 3 4 23 11 45 15 27 4 46 14 58 32 45
64 50 67 124 60 67 -6 69 -6 90 23 18 25 27 29 51 24 16 -3 39 -1 51 4 61 29
74 35 94 47 13 7 32 21 43 31 12 11 29 16 46 12 33 -6 82 9 110 34 11 11 30
19 43 19 27 0 81 27 81 40 0 6 15 10 34 10 37 0 106 25 106 39 0 4 19 11 43
14 48 7 234 79 287 112 19 12 62 27 95 34 57 12 71 16 140 46 17 7 42 16 57
19 15 4 32 15 38 26 8 15 21 20 56 20 34 0 51 6 68 23 15 15 41 26 67 30 24 3
64 16 89 29 25 12 53 21 63 19 10 -1 24 2 30 7 17 15 125 51 131 45 3 -3 16 1
28 9 13 8 39 18 59 22 21 3 42 13 49 21 7 8 24 15 38 15 14 0 33 6 41 13 9 7
36 19 61 26 25 7 53 17 62 22 10 5 28 9 42 9 13 0 29 7 36 15 7 8 24 15 39 15
28 0 82 18 118 38 12 7 30 12 41 12 10 0 29 11 42 25 19 20 33 25 71 25 37 0
51 5 63 21 11 16 21 20 43 15 22 -5 39 0 67 19 23 16 45 23 56 20 12 -4 27 2
39 14 12 12 27 18 41 14 11 -3 28 1 38 9 17 16 58 29 101 34 13 2 42 15 64 30
22 15 57 28 77 29 20 2 54 11 75 21 22 10 51 21 65 25 14 4 -243 7 -570 7
-446 0 -604 -3 -629 -13z"/>
<path d="M19137 10315 c-21 -19 -41 -35 -45 -35 -4 0 -29 -20 -57 -45 -27 -25
-65 -56 -82 -68 -18 -12 -33 -28 -33 -34 0 -7 -7 -13 -15 -13 -9 0 -21 -11
-27 -25 -6 -14 -17 -25 -24 -25 -7 0 -21 -11 -32 -25 -11 -14 -24 -25 -29 -25
-5 0 -46 -38 -91 -85 -45 -47 -84 -85 -87 -85 -9 0 -96 -92 -127 -135 -16 -22
-35 -42 -42 -45 -7 -3 -81 -84 -164 -180 -83 -96 -163 -181 -179 -187 -15 -7
-40 -23 -55 -35 -15 -13 -54 -45 -87 -72 -34 -28 -61 -53 -61 -57 0 -4 -11
-10 -24 -13 -13 -3 -26 -15 -29 -26 -3 -13 -13 -20 -31 -20 -16 0 -31 -9 -42
-25 -9 -14 -24 -25 -34 -25 -9 0 -28 -8 -41 -19 -13 -10 -28 -20 -34 -22 -27
-12 -85 -52 -85 -60 0 -5 -7 -9 -15 -9 -8 0 -24 -9 -35 -20 -11 -11 -29 -20
-39 -20 -11 0 -23 -4 -26 -10 -3 -5 -13 -10 -21 -10 -8 0 -40 -16 -70 -35 -30
-19 -60 -35 -68 -35 -7 0 -19 -7 -26 -15 -7 -8 -16 -12 -21 -10 -9 6 -104 -40
-133 -64 -10 -9 -20 -15 -22 -14 -8 5 -65 -10 -70 -18 -3 -5 -16 -9 -29 -9
-13 0 -27 -4 -30 -10 -3 -5 -17 -10 -30 -10 -13 0 -39 -6 -57 -14 -65 -29
-109 -41 -251 -71 -37 -8 -76 -19 -87 -25 -10 -5 -33 -10 -50 -10 -17 0 -41
-5 -53 -12 -12 -7 -44 -13 -72 -14 -27 -1 -66 -4 -85 -8 -153 -26 -368 -28
-492 -3 -51 10 -108 20 -126 23 -58 8 -181 78 -252 143 -144 131 -101 381 100
582 42 42 103 94 135 115 33 21 62 41 65 44 12 13 170 84 236 106 162 54 282
67 356 37 51 -20 67 -38 68 -75 0 -47 -19 -79 -93 -152 -114 -114 -294 -182
-400 -153 -24 7 -28 5 -25 -10 2 -9 19 -26 38 -37 28 -17 52 -21 125 -21 52 0
105 6 125 14 67 26 100 42 100 49 0 4 15 13 33 21 30 13 137 115 137 131 0 4
9 17 19 29 26 30 46 119 37 165 -9 45 -71 109 -124 128 -41 14 -165 17 -227 6
-184 -34 -408 -137 -555 -256 -120 -97 -250 -244 -250 -282 0 -10 -6 -20 -14
-23 -18 -7 -53 -84 -60 -132 -3 -19 -10 -54 -15 -77 -6 -23 -8 -45 -5 -49 2
-4 6 -29 8 -56 5 -61 30 -124 74 -188 43 -62 117 -133 158 -151 17 -7 36 -20
44 -28 7 -9 18 -16 25 -16 8 0 15 -5 17 -10 2 -6 12 -12 23 -14 11 -2 43 -16
70 -30 28 -15 64 -29 80 -31 17 -3 73 -12 125 -21 52 -9 122 -17 155 -19 175
-7 224 -6 242 3 11 6 24 8 27 4 9 -8 136 -3 151 6 5 3 26 5 46 3 20 -1 40 3
44 9 4 7 18 9 35 5 16 -3 31 -2 35 4 3 6 27 11 53 11 28 0 57 7 71 16 13 10
48 18 83 19 33 2 65 8 71 14 6 6 24 11 39 11 16 0 36 4 46 9 9 5 38 15 65 22
26 6 47 16 47 20 0 5 12 9 26 9 14 0 38 8 52 19 44 30 94 50 152 61 30 6 60
17 67 26 6 9 16 13 22 10 5 -4 27 8 47 26 21 19 46 32 56 30 11 -2 34 8 53 22
18 14 40 26 49 26 8 0 18 4 21 10 3 5 22 17 42 27 35 16 36 16 54 -6 17 -21
17 -25 2 -64 -8 -23 -24 -61 -35 -84 -11 -24 -21 -49 -22 -55 -2 -7 -10 -30
-20 -50 -9 -21 -16 -44 -16 -52 0 -9 -8 -30 -18 -48 -10 -18 -19 -40 -19 -48
-1 -8 -11 -40 -22 -70 -11 -30 -20 -59 -19 -65 1 -5 -3 -20 -10 -32 -7 -12 -9
-28 -6 -37 3 -8 -1 -25 -9 -37 -9 -12 -13 -27 -11 -34 3 -7 -2 -27 -10 -43 -9
-17 -13 -38 -10 -46 4 -9 1 -22 -5 -29 -11 -14 -22 -98 -26 -197 -1 -30 -5
-63 -9 -73 -5 -9 -5 -29 -2 -43 4 -14 2 -31 -3 -38 -6 -7 -8 -43 -6 -82 2 -38
4 -78 4 -89 0 -11 -1 -58 -2 -105 -1 -101 5 -162 33 -295 24 -118 49 -196 69
-211 9 -7 12 -21 8 -40 -6 -34 18 -102 44 -126 11 -9 19 -29 19 -47 0 -19 6
-34 15 -37 8 -4 15 -12 15 -19 0 -6 9 -20 19 -29 11 -10 17 -24 14 -32 -3 -8
1 -22 10 -32 8 -9 24 -36 36 -59 12 -23 29 -47 40 -52 10 -6 21 -23 24 -38 3
-15 22 -46 42 -68 21 -22 51 -58 68 -80 56 -73 293 -295 316 -295 6 0 14 -6
18 -12 4 -7 15 -17 24 -23 9 -5 41 -27 71 -47 30 -21 62 -38 71 -38 9 0 31
-14 49 -30 18 -17 38 -30 45 -30 12 0 36 -10 73 -32 32 -18 86 -41 98 -41 6 0
12 -4 12 -7 0 -9 62 -36 74 -32 4 1 13 -2 20 -7 18 -15 105 -43 124 -39 9 2
24 -5 32 -15 10 -11 35 -20 70 -24 30 -3 62 -12 71 -20 9 -7 40 -16 68 -20 28
-3 54 -10 57 -14 18 -29 24 5 24 130 l0 139 -29 7 c-16 3 -49 5 -74 4 -39 -2
-51 2 -82 30 -29 25 -45 32 -71 29 -23 -2 -40 4 -57 20 -13 12 -27 22 -31 22
-4 0 -36 13 -71 29 -35 16 -87 38 -116 48 -29 10 -63 28 -75 41 -13 12 -28 22
-33 22 -6 0 -30 15 -54 33 -23 17 -60 41 -82 52 -21 11 -53 35 -69 53 -17 17
-34 32 -38 32 -8 0 -53 38 -86 73 -14 15 -31 27 -39 27 -7 0 -13 6 -13 13 0 6
-29 42 -65 79 -36 37 -65 73 -65 80 0 7 -13 28 -28 45 -27 32 -70 96 -105 157
-11 17 -28 41 -39 53 -11 12 -18 28 -15 35 5 16 -30 88 -43 88 -6 0 -10 14
-10 32 0 17 -14 60 -30 95 -17 35 -30 79 -29 96 1 18 -4 57 -10 87 -7 30 -14
75 -16 100 -2 25 -7 70 -11 100 -4 30 -7 123 -6 207 1 93 -3 155 -9 159 -6 4
-4 15 6 31 11 17 15 36 11 56 -4 17 -1 36 6 44 7 8 11 28 10 43 -1 16 2 31 8
35 5 3 10 28 10 55 0 27 4 51 8 54 5 3 15 37 22 76 7 39 17 73 22 76 4 3 8 25
8 50 0 31 6 51 20 67 14 14 19 30 15 44 -3 15 5 38 25 69 16 27 30 53 30 59 0
17 73 186 125 289 25 48 45 93 45 98 0 5 7 16 16 25 8 9 13 22 10 29 -3 8 4
18 14 24 11 6 20 19 20 29 0 11 6 21 14 24 7 3 16 19 19 35 3 16 20 43 36 60
19 19 33 45 37 70 5 33 12 43 35 51 16 5 29 15 29 21 0 15 74 120 115 164 20
21 44 55 55 75 10 20 28 42 39 49 12 7 21 16 21 20 0 4 27 37 60 72 33 36 60
73 60 83 0 9 6 17 13 17 16 0 77 62 77 78 0 7 7 12 15 12 8 0 15 5 15 10 0 6
18 27 40 49 22 21 40 44 40 50 0 6 6 11 14 11 13 0 94 83 122 126 9 13 22 24
29 24 7 0 34 24 60 53 26 30 65 65 86 78 l39 24 0 137 c0 155 -2 159 -63 103z"/>
<path d="M1947 4954 c-2 -2 -21 -4 -42 -5 -22 -1 -58 -5 -80 -10 -22 -5 -60
-10 -85 -13 -25 -3 -56 -7 -70 -10 -14 -3 -45 -9 -70 -14 -25 -4 -51 -12 -58
-16 -7 -4 -25 -10 -40 -12 -15 -3 -58 -16 -97 -30 -38 -14 -78 -28 -87 -31
-10 -3 -18 -10 -18 -15 0 -5 -6 -8 -12 -7 -7 1 -24 -2 -38 -8 -14 -6 -45 -19
-70 -29 -25 -10 -52 -23 -60 -30 -8 -7 -37 -22 -65 -34 -65 -28 -303 -187
-316 -211 -5 -11 -15 -19 -22 -19 -14 0 -147 -123 -147 -136 0 -5 -16 -22 -35
-37 -19 -15 -35 -33 -35 -40 0 -7 -10 -24 -23 -39 -12 -14 -31 -37 -41 -49
-29 -35 -86 -139 -86 -157 0 -8 -6 -23 -13 -31 -21 -24 -53 -123 -48 -145 1
-5 -3 -12 -9 -16 -6 -4 -13 -38 -16 -76 -2 -38 -8 -82 -12 -99 -7 -31 -7 -68
2 -140 2 -22 7 -62 9 -90 7 -72 18 -124 28 -131 5 -3 7 -10 3 -15 -3 -5 1 -21
10 -34 9 -13 16 -33 16 -44 0 -11 5 -23 10 -26 6 -3 10 -14 10 -23 0 -9 11
-39 25 -67 13 -27 25 -56 25 -63 0 -7 7 -15 15 -18 8 -4 15 -13 15 -20 0 -14
49 -95 102 -172 48 -68 193 -239 249 -292 105 -100 159 -150 164 -150 3 0 14
-8 24 -17 11 -10 26 -23 33 -28 55 -43 90 -68 124 -88 118 -67 164 -101 164
-122 0 -25 -39 -63 -60 -58 -11 3 -28 2 -37 -2 -10 -4 -32 -9 -48 -10 -17 -1
-40 -7 -53 -14 -12 -7 -44 -11 -70 -10 -26 1 -57 -3 -69 -9 -12 -7 -28 -10
-36 -7 -7 3 -34 1 -58 -5 -24 -7 -57 -13 -74 -15 -16 -2 -34 -11 -41 -19 -9
-12 -17 -14 -35 -7 -15 5 -34 5 -49 -2 -32 -13 -49 -18 -85 -24 -16 -2 -37 -7
-45 -10 -8 -3 -31 -7 -50 -10 -19 -2 -47 -12 -62 -23 -15 -11 -40 -20 -55 -20
-16 0 -53 -7 -83 -15 -30 -8 -64 -17 -74 -20 -11 -2 -31 -15 -45 -29 -22 -20
-30 -22 -49 -13 -16 7 -29 7 -45 0 -12 -6 -30 -14 -40 -17 -15 -5 -17 -21 -17
-149 l0 -144 25 5 c14 2 28 8 31 13 3 5 15 9 27 9 26 0 136 37 154 52 7 5 17
7 22 3 6 -3 42 4 80 15 68 21 142 39 246 62 28 6 57 13 65 16 8 3 24 4 36 3
11 -1 40 4 65 12 24 8 57 15 73 16 16 0 37 7 45 15 11 10 21 12 32 5 10 -5 28
-5 45 1 16 5 47 12 69 15 22 3 51 8 65 11 39 9 170 23 225 25 28 1 60 8 73 15
15 10 28 12 40 5 11 -6 34 -6 62 1 39 8 218 19 290 17 14 0 32 0 40 -1 106 -2
268 7 282 15 13 9 21 8 30 -1 15 -15 92 -16 134 0 29 10 36 9 53 -6 14 -13 41
-19 98 -22 88 -4 159 -10 218 -19 22 -3 68 -5 102 -5 34 0 65 -5 68 -11 5 -6
21 -8 40 -5 44 9 160 -10 191 -30 15 -10 33 -14 49 -10 15 4 40 0 58 -8 41
-19 66 -25 112 -31 20 -3 45 -10 56 -15 11 -6 23 -9 28 -6 8 5 44 -5 111 -30
19 -8 44 -12 55 -10 11 2 27 -2 35 -9 19 -15 95 -42 142 -50 20 -4 44 -16 54
-26 9 -10 27 -19 40 -19 13 0 26 -5 29 -10 3 -6 24 -10 45 -10 29 0 40 -5 45
-19 3 -10 20 -24 38 -31 18 -7 48 -21 68 -31 20 -10 44 -19 52 -19 8 0 17 -6
20 -13 3 -8 38 -24 79 -37 50 -15 82 -32 102 -53 17 -18 46 -40 65 -50 20 -11
57 -35 82 -53 26 -19 52 -34 58 -34 6 0 11 -4 11 -9 0 -4 30 -28 68 -52 37
-24 73 -49 80 -56 7 -7 19 -13 27 -13 14 0 26 -11 160 -136 44 -41 90 -77 103
-81 13 -3 28 -16 32 -29 10 -26 65 -64 93 -64 11 0 17 -8 17 -23 0 -26 206
-229 243 -237 14 -4 23 -15 25 -30 4 -27 65 -90 88 -90 8 0 14 -7 14 -16 0
-19 186 -204 206 -204 8 0 14 -8 14 -17 1 -10 9 -28 19 -40 19 -23 21 -23 278
-22 142 1 248 4 236 6 -13 2 -23 9 -23 16 0 19 -368 375 -391 379 -15 2 -25
13 -30 32 -9 31 -66 95 -86 96 -7 0 -13 6 -13 13 0 20 -33 47 -57 47 -14 0
-22 8 -26 28 -4 17 -16 33 -32 40 -14 7 -29 20 -32 29 -13 33 -127 143 -160
154 -20 6 -33 17 -33 27 0 21 -83 102 -104 102 -8 0 -17 9 -21 19 -7 23 -80
91 -98 91 -7 0 -17 10 -22 22 -6 12 -31 33 -56 47 -26 14 -70 47 -98 74 -28
26 -64 50 -82 54 -19 4 -34 14 -39 29 -5 12 -18 28 -29 34 -11 6 -32 21 -46
34 -14 13 -38 27 -52 31 -14 3 -35 17 -45 31 -11 13 -28 24 -39 24 -11 0 -35
11 -53 25 -18 14 -38 25 -44 25 -6 0 -15 6 -19 13 -9 16 -69 47 -90 47 -7 0
-13 5 -13 10 0 6 -12 16 -27 23 -16 6 -34 17 -41 24 -7 7 -20 13 -28 13 -9 0
-58 23 -109 51 -60 32 -101 48 -113 45 -12 -4 -25 1 -37 14 -10 11 -27 20 -37
20 -11 0 -26 7 -34 15 -9 8 -27 15 -42 15 -15 0 -41 9 -59 19 -17 11 -62 27
-100 37 -37 9 -72 20 -78 24 -12 9 -71 21 -104 20 -13 0 -31 6 -40 14 -28 24
-104 45 -125 34 -14 -8 -25 -5 -48 12 -23 17 -46 23 -93 24 -35 1 -70 7 -78
14 -13 11 -31 14 -92 12 -36 -1 -148 20 -161 31 -7 5 -32 9 -56 8 -24 -2 -49
0 -55 4 -22 13 -215 27 -430 31 -84 1 -156 6 -160 9 -11 12 -40 8 -53 -8 -7
-8 -16 -12 -21 -9 -13 8 -92 15 -204 19 -67 2 -110 8 -130 19 -16 9 -46 19
-65 22 -19 4 -42 12 -50 18 -22 18 -135 66 -153 66 -9 0 -20 6 -24 13 -7 13
-37 29 -56 31 -4 1 -11 6 -15 11 -4 6 -25 19 -47 30 -22 11 -41 23 -43 28 -2
4 -10 7 -19 7 -14 0 -78 43 -98 67 -5 6 -35 27 -65 46 -30 19 -64 45 -75 57
-11 12 -33 29 -49 37 -35 18 -316 302 -316 319 0 2 -28 45 -63 96 -54 81 -100
159 -129 221 -4 9 -12 25 -17 35 -5 10 -12 32 -15 49 -4 17 -14 37 -22 43 -7
7 -12 15 -9 19 2 4 -3 36 -11 71 -23 100 -38 276 -24 295 4 6 13 51 20 100 8
50 17 93 22 96 7 4 24 36 106 194 8 17 35 52 59 79 24 26 43 54 43 62 0 8 5
14 11 14 6 0 44 34 85 75 41 41 78 75 82 75 5 0 18 11 30 25 12 14 27 25 34
25 6 0 19 7 28 15 16 14 227 145 235 145 5 0 135 58 156 70 23 12 149 54 239
80 41 12 82 24 90 27 8 3 29 7 45 8 17 1 55 8 85 14 92 21 331 20 440 -3 69
-14 147 -39 198 -63 74 -35 173 -100 190 -124 7 -10 20 -25 29 -35 54 -54 106
-181 117 -287 7 -73 -27 -247 -57 -284 -5 -7 -7 -20 -3 -28 3 -10 -3 -25 -17
-38 -13 -12 -36 -44 -51 -71 -55 -95 -261 -282 -351 -319 -99 -41 -186 -60
-269 -60 -79 1 -100 5 -151 29 -67 32 -95 59 -129 124 -30 57 -38 118 -25 181
15 67 82 164 145 207 56 38 171 97 207 106 15 4 25 11 22 16 -10 16 -136 12
-196 -6 -56 -17 -131 -53 -137 -66 -2 -5 -9 -8 -16 -8 -22 0 -90 -72 -128
-135 -39 -65 -58 -143 -52 -215 5 -57 43 -180 55 -180 5 0 15 -12 22 -27 6
-16 23 -41 37 -57 31 -36 140 -107 152 -100 5 3 14 1 21 -4 13 -10 59 -24 92
-28 79 -9 214 -1 243 15 11 6 31 11 44 11 13 0 46 12 73 25 28 14 55 25 61 25
6 0 17 7 24 15 7 8 20 15 29 15 10 0 33 14 51 30 18 17 40 30 47 30 7 0 18 11
24 24 7 14 22 27 34 30 45 11 262 272 242 292 -3 3 3 14 14 25 10 10 19 26 19
35 0 9 6 22 13 28 8 6 26 49 41 96 33 105 46 309 21 330 -9 8 -12 18 -6 27 15
27 -49 180 -101 243 -76 91 -103 120 -114 120 -6 0 -19 9 -29 20 -10 11 -24
20 -30 20 -7 0 -15 7 -18 15 -6 15 -155 91 -171 87 -4 -2 -13 2 -20 7 -9 8
-37 17 -111 37 -5 2 -21 5 -35 8 -14 3 -38 9 -55 12 -29 7 -263 13 -268 8z"/>
<path d="M14766 4430 c-26 -5 -55 -12 -65 -16 -9 -4 -25 -8 -36 -9 -38 -4
-137 -35 -190 -59 -29 -13 -56 -22 -59 -19 -2 3 -22 -4 -43 -15 -21 -11 -56
-28 -78 -37 -82 -35 -128 -60 -132 -72 -3 -7 -13 -13 -23 -13 -10 0 -23 -7
-30 -15 -7 -8 -21 -15 -31 -15 -11 0 -19 -4 -19 -10 0 -5 -5 -10 -10 -10 -20
0 -219 -141 -272 -192 -16 -16 -32 -28 -35 -28 -15 0 -163 -163 -169 -185 -3
-14 -13 -25 -20 -25 -19 0 -88 -109 -105 -165 -7 -25 -17 -45 -21 -45 -33 0
-43 -261 -14 -348 10 -29 22 -55 27 -58 5 -3 9 -12 9 -21 0 -8 14 -32 30 -53
17 -21 30 -43 30 -48 0 -6 11 -19 25 -30 14 -11 25 -25 25 -31 0 -6 11 -17 25
-23 14 -6 25 -16 25 -22 0 -15 65 -66 84 -66 9 0 16 -6 16 -13 0 -12 82 -67
100 -67 6 0 10 -4 10 -10 0 -5 9 -10 20 -10 11 0 29 -9 40 -20 11 -11 31 -20
44 -20 14 0 27 -4 31 -9 7 -13 64 -41 82 -41 7 0 21 -4 31 -9 27 -15 55 -24
80 -27 13 -2 29 -7 35 -12 13 -11 241 -69 327 -84 30 -5 81 -11 112 -12 32 -2
64 -9 73 -16 11 -9 33 -11 74 -7 33 4 62 2 68 -4 14 -14 53 -20 73 -9 11 6 23
5 36 -5 11 -7 31 -13 44 -14 414 -11 599 -11 604 -2 5 8 13 8 27 1 11 -6 23
-8 28 -5 5 3 49 8 98 11 126 8 141 10 157 24 8 6 24 9 35 5 10 -3 22 -1 26 5
4 6 16 8 27 4 19 -6 177 11 208 23 8 3 31 7 50 10 46 6 62 9 80 15 8 3 38 10
65 16 144 31 202 46 216 59 9 7 34 16 55 19 87 11 98 13 118 22 12 5 57 20
101 32 44 12 108 33 142 47 76 29 117 28 121 -5 3 -17 -14 -40 -63 -90 -36
-37 -78 -79 -92 -93 -14 -15 -37 -33 -52 -40 -14 -7 -73 -59 -130 -116 -57
-57 -107 -103 -111 -103 -5 0 -14 -16 -20 -35 -6 -19 -25 -44 -42 -56 -16 -12
-38 -35 -48 -52 -10 -16 -60 -68 -112 -114 -51 -47 -97 -95 -103 -107 -5 -13
-29 -41 -52 -63 -24 -21 -43 -44 -43 -50 0 -6 -6 -16 -14 -23 -8 -6 -16 -26
-18 -43 -2 -25 -9 -32 -34 -39 -36 -9 -124 -114 -124 -148 0 -13 -11 -27 -30
-38 -16 -9 -37 -31 -45 -48 -8 -17 -21 -37 -30 -44 -8 -7 -15 -21 -15 -32 0
-10 -6 -21 -14 -24 -17 -7 -76 -97 -76 -117 0 -8 -11 -22 -25 -31 -15 -10 -25
-26 -25 -40 0 -14 -13 -38 -30 -54 -16 -17 -30 -40 -30 -52 0 -11 -11 -31 -24
-43 -14 -13 -28 -43 -35 -75 -7 -36 -22 -65 -42 -86 -30 -32 -48 -60 -67 -101
-5 -11 -26 -55 -46 -99 -20 -43 -34 -86 -31 -95 3 -11 -5 -27 -20 -41 -14 -14
-25 -34 -25 -49 1 -43 -11 -95 -24 -106 -39 -32 -84 -166 -84 -249 0 -43 -5
-62 -16 -68 -42 -23 -5 -28 222 -28 l238 0 18 62 c10 34 16 76 13 94 -4 25 0
37 19 55 13 12 24 31 24 41 0 11 7 26 15 34 8 9 15 28 15 44 0 15 6 30 14 33
7 3 16 17 20 32 4 15 20 55 36 89 17 35 30 76 30 93 0 17 8 38 20 48 11 10 20
26 20 35 0 10 7 23 15 30 20 17 65 107 65 130 0 9 7 23 15 30 8 7 15 20 15 30
0 9 11 22 25 28 14 7 27 23 30 39 4 15 11 38 16 51 5 13 9 31 9 40 1 9 21 33
46 52 24 19 48 46 51 60 4 14 17 33 30 43 13 10 35 40 50 65 15 26 33 53 40
60 7 7 13 19 13 27 0 7 11 20 25 29 14 9 25 25 25 35 0 10 7 24 15 31 8 7 15
22 15 34 1 29 30 62 74 80 27 11 38 23 42 46 4 19 13 30 23 30 23 0 41 20 41
45 0 25 26 58 53 68 9 4 20 14 24 24 8 22 38 58 82 99 18 17 43 41 55 53 108
112 182 185 202 197 13 9 26 24 29 35 4 10 18 32 33 47 39 41 62 74 62 88 0 7
14 15 30 19 17 4 38 17 46 30 8 13 27 28 42 33 15 6 51 32 80 59 72 66 123
108 148 121 12 6 25 23 28 37 4 14 14 25 23 25 23 0 83 39 83 55 0 7 11 16 25
19 14 4 25 10 25 15 0 4 25 25 55 46 32 22 58 48 61 61 3 13 11 24 16 24 23 0
78 33 83 51 4 10 14 19 23 19 23 0 122 91 122 112 0 22 19 33 48 29 27 -3 62
24 62 49 0 12 11 20 35 24 25 5 42 18 62 46 16 22 36 40 47 40 31 0 125 68
132 95 4 15 13 25 24 25 11 0 22 5 25 10 3 6 15 10 26 10 10 0 28 9 39 20 11
11 22 20 25 20 9 0 83 54 140 103 18 15 40 27 48 27 9 0 21 9 27 20 6 11 19
20 29 20 10 0 32 16 50 35 17 19 41 35 52 35 11 0 22 7 25 15 4 8 10 15 15 15
5 0 33 16 64 35 l55 36 0 189 c0 178 -1 190 -17 181 -10 -5 -31 -14 -46 -20
-16 -6 -31 -20 -34 -31 -4 -14 -14 -20 -33 -20 -31 0 -189 -86 -197 -107 -3
-7 -14 -13 -24 -13 -10 0 -26 -11 -35 -25 -10 -15 -26 -25 -41 -25 -13 0 -35
-11 -49 -25 -14 -14 -31 -25 -38 -25 -7 0 -25 -11 -39 -24 -14 -13 -37 -26
-51 -30 -14 -3 -26 -11 -26 -16 0 -6 -6 -10 -14 -10 -8 0 -28 -13 -46 -30 -18
-16 -38 -30 -46 -30 -7 0 -21 -11 -30 -25 -9 -14 -23 -25 -31 -25 -24 0 -112
-61 -118 -82 -4 -10 -12 -18 -20 -18 -23 0 -94 -52 -101 -74 -8 -27 -22 -36
-55 -36 -15 0 -32 -7 -39 -15 -7 -8 -18 -15 -25 -15 -6 0 -39 -27 -73 -60 -33
-33 -63 -60 -66 -60 -3 0 -48 -20 -100 -45 -53 -25 -100 -45 -106 -45 -5 0
-10 -4 -10 -9 0 -5 -13 -12 -30 -16 -16 -4 -32 -11 -35 -16 -4 -5 -13 -9 -21
-9 -8 0 -44 -13 -79 -30 -35 -16 -69 -30 -75 -30 -6 0 -18 -4 -28 -9 -16 -8
-32 -15 -99 -42 -16 -6 -41 -17 -58 -24 -16 -7 -69 -25 -117 -40 -49 -15 -88
-31 -88 -36 0 -5 -6 -6 -13 -3 -7 2 -46 -6 -87 -20 -41 -13 -120 -36 -174 -51
-55 -15 -117 -36 -138 -47 -21 -11 -45 -18 -53 -14 -8 3 -36 1 -63 -4 -26 -6
-58 -12 -72 -14 -14 -3 -37 -9 -51 -14 -14 -6 -52 -13 -85 -17 -32 -4 -69 -13
-81 -21 -13 -8 -33 -12 -47 -8 -14 3 -31 2 -38 -2 -7 -5 -47 -10 -88 -12 -41
-2 -79 -7 -85 -12 -6 -5 -20 -9 -30 -9 -11 -1 -54 -3 -95 -5 -41 -3 -124 -8
-185 -12 -60 -3 -117 -10 -126 -15 -10 -5 -20 -4 -27 3 -9 9 -21 9 -47 -1 -19
-7 -45 -9 -57 -6 -17 6 -258 17 -305 15 -51 -3 -159 6 -171 14 -7 4 -17 4 -22
1 -6 -3 -45 1 -88 9 -42 9 -99 18 -127 20 -27 2 -57 7 -66 11 -9 3 -27 7 -40
9 -13 2 -31 6 -39 9 -8 4 -33 8 -55 11 -22 2 -53 9 -68 15 -16 6 -45 11 -64
11 -20 0 -44 7 -54 16 -10 9 -34 17 -55 19 -20 2 -42 9 -47 14 -6 6 -18 11
-26 11 -8 0 -33 9 -55 19 -23 11 -50 21 -61 23 -11 2 -44 15 -74 31 -29 15
-64 27 -77 27 -13 0 -24 6 -24 13 0 7 -34 37 -76 67 -42 30 -86 66 -98 81 -13
14 -32 32 -44 38 -12 6 -22 20 -22 29 0 10 -5 23 -10 28 -23 23 -51 148 -44
199 3 28 7 58 8 67 3 23 87 192 98 196 4 2 8 7 8 12 0 5 16 25 35 44 19 20 35
43 35 51 0 8 6 15 13 15 8 0 32 19 54 43 22 23 73 67 113 97 40 30 81 63 91
73 11 9 21 17 24 17 7 0 100 64 103 72 2 4 36 23 77 42 40 19 76 39 80 45 3 6
15 11 26 11 10 0 19 4 19 9 0 5 14 13 32 16 17 4 51 18 76 31 25 13 55 24 66
24 12 0 26 4 32 9 22 21 241 65 326 65 79 0 89 -3 122 -28 32 -24 36 -32 36
-75 0 -34 -9 -67 -32 -112 -17 -35 -34 -66 -37 -69 -16 -13 -112 -140 -106
-140 28 0 157 97 200 150 35 43 65 90 57 90 -4 0 -1 4 6 8 15 10 23 40 29 108
6 63 -17 124 -46 124 -13 0 -21 8 -23 22 -2 13 -11 24 -23 27 -11 2 -22 7 -25
11 -17 24 -215 37 -314 20z"/>
<path d="M12130 1602 c-19 -1 -42 -5 -50 -8 -8 -3 -42 -7 -75 -9 -139 -9 -197
-16 -215 -25 -10 -5 -26 -7 -34 -4 -9 4 -22 1 -30 -5 -7 -6 -15 -8 -19 -5 -3
3 -23 0 -44 -7 -21 -7 -44 -12 -51 -10 -8 1 -19 -2 -25 -7 -7 -5 -37 -12 -67
-16 -30 -4 -60 -12 -67 -17 -6 -6 -26 -12 -44 -14 -17 -3 -57 -12 -88 -21 -31
-10 -60 -17 -65 -15 -4 1 -19 -5 -32 -14 -13 -8 -32 -15 -43 -15 -11 0 -22 -4
-25 -9 -3 -5 -26 -12 -50 -15 -25 -4 -55 -15 -68 -25 -13 -10 -28 -16 -35 -14
-6 2 -26 -3 -43 -12 -18 -9 -41 -18 -52 -20 -12 -3 -29 -12 -39 -21 -10 -9
-23 -13 -29 -9 -6 4 -18 1 -26 -6 -9 -7 -23 -14 -32 -15 -13 -2 -126 -54 -184
-85 -10 -5 -24 -9 -31 -9 -8 0 -31 -11 -51 -25 -20 -14 -44 -25 -52 -25 -8 0
-26 -11 -40 -25 -14 -14 -35 -25 -47 -25 -13 0 -43 -12 -68 -28 -24 -15 -55
-33 -69 -40 -14 -7 -47 -26 -75 -42 -27 -17 -60 -34 -71 -39 -12 -5 -34 -21
-49 -35 -15 -14 -36 -26 -46 -26 -9 0 -36 -18 -59 -40 -23 -22 -50 -40 -60
-40 -10 0 -25 -11 -33 -24 -9 -13 -28 -27 -43 -30 -25 -7 -94 -53 -119 -80 -5
-6 -22 -19 -37 -29 -16 -10 -28 -24 -28 -33 0 -8 -4 -13 -9 -10 -17 11 -226
-161 -236 -195 -4 -11 -14 -19 -24 -19 -10 0 -30 -13 -44 -30 -15 -16 -32 -30
-37 -30 -6 0 -10 -7 -10 -15 0 -8 -5 -15 -11 -15 -16 0 -119 -101 -119 -117 0
-7 -5 -13 -12 -13 -12 0 -128 -119 -128 -132 0 -4 44 -8 98 -8 l99 0 72 67
c97 92 178 163 184 163 5 0 63 48 98 82 9 9 25 19 36 22 10 3 36 22 58 41 22
20 65 52 95 72 113 74 165 108 175 115 6 4 24 18 40 30 17 13 52 34 79 48 26
14 50 31 53 38 3 6 13 12 23 12 11 0 22 5 25 11 4 5 40 26 81 45 41 19 74 39
74 44 0 6 7 10 15 10 17 0 46 15 84 43 13 9 32 17 41 17 10 0 23 7 30 15 7 8
20 15 30 15 9 0 37 11 61 23 24 13 61 29 81 36 20 7 40 21 43 31 4 13 14 18
33 15 15 -2 36 2 47 9 11 7 40 18 64 26 24 8 46 20 48 28 4 8 14 11 28 8 14
-4 28 0 35 9 7 8 16 13 20 10 5 -3 30 6 57 19 26 13 65 26 87 29 21 4 46 13
56 22 9 8 29 15 45 15 15 0 76 14 134 31 58 17 115 33 126 36 11 3 27 7 35 10
8 4 33 8 55 9 22 2 47 7 55 10 8 4 33 8 54 10 22 2 44 8 51 14 6 5 20 9 30 8
26 -1 126 10 195 22 30 5 120 12 200 15 81 4 150 11 157 17 10 8 21 8 40 -1
15 -7 58 -11 97 -10 39 1 82 -1 96 -5 14 -3 61 -8 105 -10 44 -3 112 -10 150
-16 89 -14 120 -19 175 -26 25 -4 50 -10 55 -14 6 -4 33 -11 60 -15 28 -4 64
-13 80 -20 45 -20 156 -55 176 -55 10 0 20 -4 23 -9 4 -5 25 -18 49 -29 23
-10 53 -24 67 -30 31 -14 63 -35 70 -44 12 -15 82 -58 95 -58 8 0 15 -4 15 -8
0 -18 37 -50 73 -65 22 -10 37 -23 37 -33 0 -9 17 -37 38 -63 21 -25 46 -58
55 -73 10 -16 23 -28 30 -28 15 -1 47 -68 47 -99 0 -12 11 -33 24 -46 13 -13
22 -26 19 -29 -10 -10 31 -111 53 -131 18 -16 21 -28 18 -65 -2 -25 3 -71 11
-104 9 -32 18 -95 21 -140 8 -128 5 -126 145 -126 l119 0 6 28 c4 15 12 34 19
42 13 15 13 79 -1 150 -4 19 -8 46 -9 60 -5 57 -17 110 -26 116 -5 3 -9 16 -9
28 0 13 -7 37 -15 52 -8 16 -15 39 -15 51 0 36 -30 106 -56 130 -16 15 -24 33
-24 57 0 33 -20 66 -41 66 -5 0 -12 12 -15 28 -11 45 -43 101 -64 112 -11 6
-19 14 -19 18 4 24 -9 43 -73 107 -40 40 -85 86 -100 104 -16 19 -35 31 -51
31 -19 0 -28 7 -36 30 -5 17 -18 33 -28 37 -10 3 -29 17 -43 31 -20 19 -32 23
-61 19 -44 -6 -55 0 -64 35 -7 26 -55 54 -70 40 -3 -3 -17 6 -31 21 -14 15
-33 27 -44 27 -10 0 -22 5 -25 10 -3 6 -16 10 -28 10 -12 0 -44 11 -72 25 -40
21 -58 24 -92 19 -36 -5 -48 -2 -76 19 -37 28 -117 47 -164 40 -19 -3 -33 -1
-33 5 0 10 -75 31 -115 33 -32 1 -125 8 -195 15 -67 7 -457 12 -520 6z"/>
<path d="M3340 1422 c-19 -1 -42 -6 -50 -9 -8 -3 -18 -7 -22 -7 -3 -1 -10 -4
-14 -8 -4 -5 -16 -8 -26 -8 -23 0 -123 -100 -147 -149 -36 -70 -43 -215 -15
-298 8 -24 12 -53 9 -63 -9 -29 -41 -43 -73 -33 -15 5 -39 9 -54 8 -15 0 -29
4 -32 11 -2 6 -19 14 -38 17 -18 4 -62 14 -98 22 -66 16 -123 29 -264 59 -43
10 -81 15 -84 12 -3 -3 -10 -2 -17 4 -6 5 -35 10 -65 12 -30 2 -57 6 -60 9 -3
4 -41 9 -85 13 -44 3 -91 8 -105 11 -75 15 -385 2 -455 -20 -39 -13 -37 -13
55 -14 52 -1 127 -6 165 -12 39 -6 88 -12 110 -13 22 -2 47 -6 55 -9 8 -3 33
-8 55 -12 64 -9 79 -12 95 -18 8 -3 26 -8 40 -10 26 -6 117 -29 185 -49 22 -6
70 -21 108 -34 37 -13 67 -22 67 -19 0 2 16 -3 35 -11 19 -8 38 -13 42 -12 5
0 22 -4 38 -11 17 -7 42 -14 56 -15 14 -2 32 -7 40 -12 12 -7 85 -35 124 -48
20 -6 51 -18 90 -36 22 -10 56 -21 75 -25 32 -7 41 -11 90 -35 11 -6 24 -10
30 -10 5 0 19 -9 30 -20 11 -11 32 -20 46 -20 14 0 43 -13 63 -29 21 -16 49
-33 64 -36 15 -4 27 -10 27 -14 0 -3 15 -12 33 -20 17 -8 34 -17 37 -21 3 -3
30 -19 60 -34 30 -16 64 -37 76 -47 11 -10 23 -19 26 -19 3 0 33 -18 66 -40
33 -22 63 -40 68 -40 5 -1 20 -14 34 -30 13 -17 32 -30 42 -30 10 0 18 -7 18
-16 0 -9 9 -18 20 -21 10 -3 26 -16 35 -29 8 -13 24 -24 35 -24 11 0 20 -5 20
-12 0 -6 15 -25 33 -42 19 -17 36 -37 38 -44 3 -10 42 -12 167 -10 l162 3 -32
38 c-18 20 -40 37 -48 37 -8 0 -25 18 -37 39 -12 22 -37 50 -54 63 -17 12 -44
35 -59 51 -15 15 -31 27 -34 27 -3 0 -25 18 -47 40 -23 22 -48 40 -55 40 -8 0
-14 5 -14 10 0 6 -12 16 -27 23 -16 6 -32 17 -38 23 -5 7 -34 24 -63 39 -29
15 -56 33 -60 40 -4 7 -38 30 -77 51 -38 21 -88 48 -110 61 -40 23 -149 76
-217 107 -50 22 -87 73 -156 211 -57 114 -56 258 2 314 36 35 111 54 159 40
16 -5 33 -6 37 -4 4 3 13 -2 20 -10 7 -8 19 -15 27 -15 17 0 91 -55 111 -82 7
-9 18 -23 26 -30 7 -8 19 -29 25 -48 15 -40 2 -89 -24 -91 -8 -1 -21 -2 -27
-3 -7 -1 -28 2 -46 7 -19 5 -36 6 -39 4 -9 -10 27 -66 56 -86 34 -25 115 -39
125 -22 4 6 15 11 25 11 10 0 27 12 37 28 10 15 24 33 32 41 27 28 -5 221 -37
221 -6 0 -11 8 -11 18 -1 19 -23 52 -35 52 -5 0 -23 17 -41 39 -29 33 -65 55
-171 103 -11 6 -26 8 -31 4 -5 -3 -15 1 -22 9 -7 9 -23 13 -38 10 -13 -2 -32
-1 -41 3 -9 4 -32 6 -51 4z"/>
<path d="M19055 1332 c-1 -2 -18 -5 -36 -7 -98 -13 -255 -54 -326 -86 -24 -10
-47 -19 -53 -19 -6 0 -18 -4 -28 -9 -9 -5 -34 -17 -54 -25 -20 -9 -40 -21 -43
-26 -4 -6 -10 -8 -15 -5 -4 2 -24 -6 -44 -20 -20 -14 -46 -25 -56 -25 -11 0
-20 -4 -20 -10 0 -5 -6 -10 -14 -10 -7 0 -20 -7 -27 -16 -7 -9 -22 -20 -34
-25 -11 -5 -33 -18 -50 -29 -16 -11 -42 -26 -57 -35 -16 -9 -28 -20 -28 -25 0
-5 -10 -12 -21 -15 -12 -4 -37 -21 -55 -39 -17 -17 -54 -49 -80 -71 -90 -76
-104 -90 -104 -102 0 -6 -9 -15 -20 -18 -12 -4 -20 -15 -20 -28 0 -15 -10 -26
-29 -35 -19 -8 -34 -27 -47 -57 -10 -25 -24 -45 -31 -45 -8 0 -18 -12 -23 -26
-6 -14 -21 -40 -35 -58 -14 -18 -25 -38 -25 -45 0 -6 -4 -19 -9 -29 -21 -39
-51 -113 -51 -124 0 -7 -7 -33 -15 -57 -9 -24 -17 -55 -20 -70 -2 -14 -7 -41
-10 -60 -4 -18 -4 -44 -1 -57 6 -24 8 -24 127 -24 118 0 120 0 109 21 -9 17
-8 25 6 40 15 17 16 23 5 41 -11 17 -10 23 8 42 16 17 52 95 50 109 -2 12 23
57 31 57 5 0 10 8 10 18 0 11 9 27 20 37 11 10 20 24 20 30 0 7 18 33 40 58
22 25 40 48 40 53 0 4 18 22 40 41 22 19 40 43 40 53 0 11 11 22 29 28 16 6
39 24 52 41 13 17 29 31 36 31 7 0 18 9 25 20 7 11 18 20 24 20 6 0 23 14 37
30 15 17 32 30 38 30 6 0 25 11 43 25 18 14 38 25 44 25 6 0 15 6 19 13 4 8
22 20 38 29 17 8 52 27 79 41 27 15 55 27 62 27 7 0 19 8 26 18 7 10 24 19 38
19 13 1 30 10 37 19 7 9 18 14 26 11 8 -3 27 1 43 9 16 8 62 24 103 35 42 11
81 25 88 31 7 5 17 7 23 3 5 -3 16 -3 23 2 6 4 19 8 27 8 8 0 39 6 68 14 l52
13 0 98 0 99 -71 -2 c-39 -1 -72 -3 -74 -5z"/>
<path d="M12030 659 c-82 -10 -198 -38 -206 -50 -3 -5 -14 -9 -24 -9 -24 0
-189 -67 -210 -85 -8 -7 -35 -22 -60 -34 -61 -29 -104 -53 -110 -60 -3 -4 -44
-32 -92 -64 -48 -32 -101 -74 -117 -93 -17 -19 -34 -34 -39 -34 -12 0 -122
-107 -122 -119 0 -6 -6 -11 -13 -11 -7 0 -21 -12 -32 -27 -11 -15 -31 -38 -44
-50 l-24 -23 107 0 c93 0 109 3 126 20 11 11 20 25 20 30 0 6 5 10 10 10 9 0
37 22 100 80 9 8 32 24 51 34 19 10 45 29 59 41 37 33 223 136 315 174 44 18
86 38 93 43 6 6 12 8 12 4 0 -4 13 0 29 8 16 9 30 13 33 11 2 -3 20 0 39 6 49
15 136 30 194 33 28 2 55 5 60 6 6 1 15 1 20 0 6 -2 24 -4 40 -5 151 -9 324
-67 359 -119 19 -30 21 -84 3 -107 -23 -30 -102 -73 -166 -89 -63 -17 -64 -18
-40 -31 23 -13 176 -18 209 -7 8 3 30 9 48 13 34 8 102 65 121 102 6 12 8 29
5 37 -4 9 -1 16 6 16 13 0 9 43 -10 110 -9 32 -59 100 -73 100 -3 0 -18 11
-33 25 -15 14 -33 25 -40 25 -8 0 -14 4 -14 9 0 14 -131 61 -202 73 -79 13
-301 17 -388 7z"/>
<path d="M19175 650 c-11 -4 -42 -13 -68 -19 -27 -6 -56 -18 -64 -26 -8 -8
-21 -15 -28 -15 -52 0 -308 -194 -386 -293 -49 -61 -49 -75 -1 -46 168 101
353 193 500 249 17 7 32 16 32 21 0 5 7 6 15 3 20 -8 27 13 23 78 -3 50 -5 54
-23 48z"/>
</g>
</svg>
